<?xml version="1.0"?>
<svg xmlns="http://www.w3.org/2000/svg" xmlns:xlink="http://www.w3.org/1999/xlink" xmlns:svgjs="http://svgjs.com/svgjs" version="1.1" width="512" height="512" x="0" y="0" viewBox="0 0 64 64" style="enable-background:new 0 0 512 512" xml:space="preserve" class=""><g><g xmlns="http://www.w3.org/2000/svg" id="Lamp"><path d="M32,6a1,1,0,0,1-1-1V3a1,1,0,0,1,2,0V5A1,1,0,0,1,32,6Z" fill="#ffffff" data-original="#000000" style=""/><path d="M19.5,9.349a1,1,0,0,1-.867-.5l-1-1.732a1,1,0,0,1,1.732-1l1,1.732a1,1,0,0,1-.865,1.5Z" fill="#ffffff" data-original="#000000" style=""/><path d="M10.349,18.5a.992.992,0,0,1-.5-.134l-1.733-1a1,1,0,0,1,1-1.732l1.733,1a1,1,0,0,1-.5,1.866Z" fill="#ffffff" data-original="#000000" style=""/><path d="M7,31H5a1,1,0,0,1,0-2H7a1,1,0,0,1,0,2Z" fill="#ffffff" data-original="#000000" style=""/><path d="M8.618,44.5a1,1,0,0,1-.5-1.866l1.733-1a1,1,0,1,1,1,1.732l-1.733,1A.992.992,0,0,1,8.618,44.5Z" fill="#ffffff" data-original="#000000" style=""/><path d="M18.5,54.383a1,1,0,0,1-.865-1.5l1-1.732a1,1,0,1,1,1.732,1l-1,1.732A1,1,0,0,1,18.5,54.383Z" fill="#ffffff" data-original="#000000" style=""/><path d="M45.5,54.383a1,1,0,0,1-.867-.5l-1-1.732a1,1,0,0,1,1.732-1l1,1.732a1,1,0,0,1-.865,1.5Z" fill="#ffffff" data-original="#000000" style=""/><path d="M55.382,44.5a.992.992,0,0,1-.5-.134l-1.733-1a1,1,0,1,1,1-1.732l1.733,1a1,1,0,0,1-.5,1.866Z" fill="#ffffff" data-original="#000000" style=""/><path d="M59,31H57a1,1,0,0,1,0-2h2a1,1,0,0,1,0,2Z" fill="#ffffff" data-original="#000000" style=""/><path d="M53.651,18.5a1,1,0,0,1-.5-1.866l1.733-1a1,1,0,0,1,1,1.732l-1.733,1A.992.992,0,0,1,53.651,18.5Z" fill="#ffffff" data-original="#000000" style=""/><path d="M44.5,9.349a1,1,0,0,1-.865-1.5l1-1.732a1,1,0,0,1,1.732,1l-1,1.732A1,1,0,0,1,44.5,9.349Z" fill="#ffffff" data-original="#000000" style=""/><path d="M33.19,8.03a22,22,0,0,0-9.77,42.23.97.97,0,0,1,.58.9V59a3.009,3.009,0,0,0,3,3H37a3.009,3.009,0,0,0,3-3V51.16a.97.97,0,0,1,.58-.9,21.868,21.868,0,0,0,13.41-21A22.119,22.119,0,0,0,33.19,8.03ZM38,59a1,1,0,0,1-1,1H27a1,1,0,0,1-1-1V58H38Zm0-3H26V54H38Zm1.8-7.58A2.967,2.967,0,0,0,38,51.16V52H26v-.84a2.967,2.967,0,0,0-1.8-2.74,20,20,0,1,1,15.6,0Z" fill="#ffffff" data-original="#000000" style=""/><path d="M45,24H40a1,1,0,0,0,0,2h2.586L34,34.586l-7.293-7.293a1,1,0,0,0-1.414,0l-8,8a1,1,0,0,0,1.414,1.414L26,29.414l7.293,7.293a1,1,0,0,0,1.414,0L44,27.414V30a1,1,0,0,0,2,0V25A1,1,0,0,0,45,24Z" fill="#ffffff" data-original="#000000" style=""/></g></g></svg>
