<?xml version="1.0"?>
<svg xmlns="http://www.w3.org/2000/svg" xmlns:xlink="http://www.w3.org/1999/xlink" xmlns:svgjs="http://svgjs.com/svgjs" version="1.1" width="512" height="512" x="0" y="0" viewBox="0 0 479.202 479.202" style="enable-background:new 0 0 512 512" xml:space="preserve" class=""><g>
<g xmlns="http://www.w3.org/2000/svg">
	<g>
		<rect x="416" y="263.601" width="16" height="56" fill="#ffffff" data-original="#000000" style="" class=""/>
	</g>
</g>
<g xmlns="http://www.w3.org/2000/svg">
	<g>
		<path d="M408.152,31.601H23.848C10.684,31.618,0.018,42.285,0,55.449v272.304c0.018,13.164,10.684,23.83,23.848,23.848H152v48h-8    c-4.418,0-8,3.582-8,8v24h-32v16h224v-16h-32v-24c0-4.418-3.582-8-8-8h-8v-48h64v-16H23.848c-4.333-0.004-7.844-3.516-7.848-7.848    V55.449c0.004-4.333,3.516-7.844,7.848-7.848H408.16c4.33,0,7.84,3.51,7.84,7.84h16C431.982,42.279,421.314,31.614,408.152,31.601    z M280,431.601H152v-16h128V431.601z M168,351.601h96v48h-96V351.601z" fill="#ffffff" data-original="#000000" style="" class=""/>
	</g>
</g>
<g xmlns="http://www.w3.org/2000/svg">
	<g>
		<rect x="32" y="271.601" width="264" height="16" fill="#ffffff" data-original="#000000" style="" class=""/>
	</g>
</g>
<g xmlns="http://www.w3.org/2000/svg">
	<g>
		<path d="M40,71.601c-4.418,0-8,3.582-8,8v160h16v-152h256v-16H40z" fill="#ffffff" data-original="#000000" style="" class=""/>
	</g>
</g>
<g xmlns="http://www.w3.org/2000/svg">
	<g>
		<path d="M478.791,150.793c-4.522-49.092-45.493-86.779-94.791-87.192c-53.017,0.445-95.636,43.784-95.192,96.802    c0.413,49.298,38.1,90.269,87.192,94.79v49.88c-9.555,3.378-15.958,12.394-16,22.528v96c0,13.255,10.745,24,24,24s24-10.745,24-24    v-96c-0.042-10.134-6.445-19.15-16-22.528v-49.88C444.796,250.33,483.653,203.589,478.791,150.793z M392,423.601    c0,4.418-3.582,8-8,8s-8-3.582-8-8v-96c0-4.418,3.582-8,8-8s8,3.582,8,8V423.601z M384,239.601c-44.183,0-80-35.817-80-80    s35.817-80,80-80c44.183,0,80,35.817,80,80C463.952,203.763,428.163,239.552,384,239.601z" fill="#ffffff" data-original="#000000" style="" class=""/>
	</g>
</g>
<g xmlns="http://www.w3.org/2000/svg">
	<g>
		<path d="M384,95.601c-35.33,0.04-63.96,28.67-64,64c0,4.418,3.582,8,8,8s8-3.582,8-8c0.026-26.499,21.501-47.974,48-48    c4.418,0,8-3.582,8-8S388.418,95.601,384,95.601z" fill="#ffffff" data-original="#000000" style="" class=""/>
	</g>
</g>
<g xmlns="http://www.w3.org/2000/svg">
	<g>
		<path d="M72,103.601c-4.418,0-8,3.582-8,8v32h16v-24h24v-16H72z" fill="#ffffff" data-original="#000000" style="" class=""/>
	</g>
</g>
<g xmlns="http://www.w3.org/2000/svg">
</g>
<g xmlns="http://www.w3.org/2000/svg">
</g>
<g xmlns="http://www.w3.org/2000/svg">
</g>
<g xmlns="http://www.w3.org/2000/svg">
</g>
<g xmlns="http://www.w3.org/2000/svg">
</g>
<g xmlns="http://www.w3.org/2000/svg">
</g>
<g xmlns="http://www.w3.org/2000/svg">
</g>
<g xmlns="http://www.w3.org/2000/svg">
</g>
<g xmlns="http://www.w3.org/2000/svg">
</g>
<g xmlns="http://www.w3.org/2000/svg">
</g>
<g xmlns="http://www.w3.org/2000/svg">
</g>
<g xmlns="http://www.w3.org/2000/svg">
</g>
<g xmlns="http://www.w3.org/2000/svg">
</g>
<g xmlns="http://www.w3.org/2000/svg">
</g>
<g xmlns="http://www.w3.org/2000/svg">
</g>
</g></svg>
